<mxfile host="app.diagrams.net" modified="2024-03-14T07:58:58.686Z" agent="Mozilla/5.0 (Windows NT 10.0; Win64; x64) AppleWebKit/537.36 (KHTML, like Gecko) Chrome/122.0.0.0 Safari/537.36 Edg/122.0.0.0" etag="cFYZf8Tz2Ud4HBvGOBeU" version="24.0.6" type="device">
  <diagram id="6a731a19-8d31-9384-78a2-239565b7b9f0" name="Page-1">
    <mxGraphModel dx="322" dy="1001" grid="1" gridSize="10" guides="1" tooltips="1" connect="1" arrows="1" fold="1" page="1" pageScale="1" pageWidth="1169" pageHeight="827" background="none" math="0" shadow="0">
      <root>
        <mxCell id="0" />
        <mxCell id="1" parent="0" />
        <mxCell id="oPd6FzRz7PDfmWoc3xB5-1762" style="edgeStyle=orthogonalEdgeStyle;rounded=0;orthogonalLoop=1;jettySize=auto;html=1;" edge="1" parent="1" source="1754" target="BJ98u4_G1ES-Bh9A2rWm-1796">
          <mxGeometry relative="1" as="geometry">
            <Array as="points">
              <mxPoint x="794" y="-260" />
            </Array>
          </mxGeometry>
        </mxCell>
        <mxCell id="oPd6FzRz7PDfmWoc3xB5-1763" style="edgeStyle=orthogonalEdgeStyle;rounded=0;orthogonalLoop=1;jettySize=auto;html=1;exitX=0.493;exitY=0.968;exitDx=0;exitDy=0;exitPerimeter=0;" edge="1" parent="1" source="1754" target="1755">
          <mxGeometry relative="1" as="geometry">
            <Array as="points">
              <mxPoint x="793" y="-338" />
              <mxPoint x="794" y="-338" />
              <mxPoint x="794" y="-160" />
            </Array>
          </mxGeometry>
        </mxCell>
        <mxCell id="oPd6FzRz7PDfmWoc3xB5-1764" style="edgeStyle=orthogonalEdgeStyle;rounded=0;orthogonalLoop=1;jettySize=auto;html=1;exitX=0.5;exitY=1;exitDx=0;exitDy=0;" edge="1" parent="1" source="1754" target="1756">
          <mxGeometry relative="1" as="geometry">
            <Array as="points">
              <mxPoint x="794" y="-354" />
              <mxPoint x="794" y="-50" />
            </Array>
          </mxGeometry>
        </mxCell>
        <mxCell id="oPd6FzRz7PDfmWoc3xB5-1766" style="edgeStyle=orthogonalEdgeStyle;rounded=0;orthogonalLoop=1;jettySize=auto;html=1;" edge="1" parent="1" target="BJ98u4_G1ES-Bh9A2rWm-1783">
          <mxGeometry relative="1" as="geometry">
            <mxPoint x="794" y="-340" as="sourcePoint" />
            <Array as="points">
              <mxPoint x="794" y="-386" />
              <mxPoint x="794" y="50" />
            </Array>
          </mxGeometry>
        </mxCell>
        <mxCell id="oPd6FzRz7PDfmWoc3xB5-1768" style="edgeStyle=orthogonalEdgeStyle;rounded=0;orthogonalLoop=1;jettySize=auto;html=1;exitX=0.5;exitY=1;exitDx=0;exitDy=0;" edge="1" parent="1" source="1754" target="BJ98u4_G1ES-Bh9A2rWm-1790">
          <mxGeometry relative="1" as="geometry">
            <Array as="points">
              <mxPoint x="794" y="150" />
            </Array>
          </mxGeometry>
        </mxCell>
        <mxCell id="oPd6FzRz7PDfmWoc3xB5-1769" style="edgeStyle=orthogonalEdgeStyle;rounded=0;orthogonalLoop=1;jettySize=auto;html=1;" edge="1" parent="1" target="BJ98u4_G1ES-Bh9A2rWm-1792">
          <mxGeometry relative="1" as="geometry">
            <mxPoint x="794" y="-340" as="sourcePoint" />
            <Array as="points">
              <mxPoint x="794" y="-354" />
              <mxPoint x="794" y="-260" />
            </Array>
          </mxGeometry>
        </mxCell>
        <mxCell id="oPd6FzRz7PDfmWoc3xB5-1770" style="edgeStyle=orthogonalEdgeStyle;rounded=0;orthogonalLoop=1;jettySize=auto;html=1;exitX=0.5;exitY=1;exitDx=0;exitDy=0;" edge="1" parent="1" source="1754" target="BJ98u4_G1ES-Bh9A2rWm-1791">
          <mxGeometry relative="1" as="geometry">
            <Array as="points">
              <mxPoint x="794" y="-160" />
            </Array>
          </mxGeometry>
        </mxCell>
        <mxCell id="oPd6FzRz7PDfmWoc3xB5-1771" style="edgeStyle=orthogonalEdgeStyle;rounded=0;orthogonalLoop=1;jettySize=auto;html=1;exitX=0.5;exitY=1;exitDx=0;exitDy=0;" edge="1" parent="1" source="1754" target="BJ98u4_G1ES-Bh9A2rWm-1799">
          <mxGeometry relative="1" as="geometry">
            <Array as="points">
              <mxPoint x="794" y="-386" />
              <mxPoint x="794" y="-50" />
            </Array>
          </mxGeometry>
        </mxCell>
        <mxCell id="oPd6FzRz7PDfmWoc3xB5-1772" style="edgeStyle=orthogonalEdgeStyle;rounded=0;orthogonalLoop=1;jettySize=auto;html=1;exitX=0.5;exitY=1;exitDx=0;exitDy=0;" edge="1" parent="1" source="1754" target="BJ98u4_G1ES-Bh9A2rWm-1798">
          <mxGeometry relative="1" as="geometry">
            <Array as="points">
              <mxPoint x="794" y="-340" />
              <mxPoint x="794" y="-340" />
              <mxPoint x="794" y="50" />
            </Array>
          </mxGeometry>
        </mxCell>
        <mxCell id="oPd6FzRz7PDfmWoc3xB5-1773" style="edgeStyle=orthogonalEdgeStyle;rounded=0;orthogonalLoop=1;jettySize=auto;html=1;exitX=0.5;exitY=1;exitDx=0;exitDy=0;" edge="1" parent="1" source="1754" target="BJ98u4_G1ES-Bh9A2rWm-1801">
          <mxGeometry relative="1" as="geometry">
            <Array as="points">
              <mxPoint x="794" y="-370" />
              <mxPoint x="794" y="150" />
            </Array>
          </mxGeometry>
        </mxCell>
        <mxCell id="oPd6FzRz7PDfmWoc3xB5-1774" style="edgeStyle=orthogonalEdgeStyle;rounded=0;orthogonalLoop=1;jettySize=auto;html=1;exitX=0.5;exitY=1;exitDx=0;exitDy=0;" edge="1" parent="1" source="1754" target="BJ98u4_G1ES-Bh9A2rWm-1800">
          <mxGeometry relative="1" as="geometry">
            <Array as="points">
              <mxPoint x="794" y="240" />
            </Array>
          </mxGeometry>
        </mxCell>
        <mxCell id="1754" value="index.html" style="rounded=1;whiteSpace=wrap;html=1;shadow=0;labelBackgroundColor=none;strokeColor=none;strokeWidth=3;fillColor=#f08e81;fontFamily=Helvetica;fontSize=14;fontColor=#FFFFFF;align=center;spacing=5;fontStyle=0;arcSize=50;perimeterSpacing=2;" parent="1" vertex="1">
          <mxGeometry x="720" y="-400" width="148.5" height="60" as="geometry" />
        </mxCell>
        <mxCell id="1755" value="Cart.html" style="rounded=1;whiteSpace=wrap;html=1;shadow=0;labelBackgroundColor=none;strokeColor=none;strokeWidth=3;fillColor=#f08e81;fontFamily=Helvetica;fontSize=14;fontColor=#FFFFFF;align=center;spacing=5;fontStyle=0;arcSize=50;perimeterSpacing=2;" parent="1" vertex="1">
          <mxGeometry x="920" y="-190" width="150" height="60" as="geometry" />
        </mxCell>
        <mxCell id="1756" value="login.html" style="rounded=1;whiteSpace=wrap;html=1;shadow=0;labelBackgroundColor=none;strokeColor=none;strokeWidth=3;fillColor=#f08e81;fontFamily=Helvetica;fontSize=14;fontColor=#FFFFFF;align=center;spacing=5;fontStyle=0;arcSize=50;perimeterSpacing=2;" parent="1" vertex="1">
          <mxGeometry x="918.5" y="-80" width="150" height="60" as="geometry" />
        </mxCell>
        <mxCell id="BJ98u4_G1ES-Bh9A2rWm-1790" value="searchProductResult.html" style="rounded=1;whiteSpace=wrap;html=1;shadow=0;labelBackgroundColor=none;strokeColor=none;strokeWidth=3;fillColor=#f08e81;fontFamily=Helvetica;fontSize=14;fontColor=#FFFFFF;align=center;spacing=5;fontStyle=0;arcSize=50;perimeterSpacing=2;" parent="1" vertex="1">
          <mxGeometry x="905.75" y="120" width="180" height="60" as="geometry" />
        </mxCell>
        <mxCell id="BJ98u4_G1ES-Bh9A2rWm-1791" value="allBoSacProduct.html" style="rounded=1;whiteSpace=wrap;html=1;shadow=0;labelBackgroundColor=none;strokeColor=none;strokeWidth=3;fillColor=#f08e81;fontFamily=Helvetica;fontSize=14;fontColor=#FFFFFF;align=center;spacing=5;fontStyle=0;arcSize=50;perimeterSpacing=2;" parent="1" vertex="1">
          <mxGeometry x="531.5" y="-190" width="150" height="60" as="geometry" />
        </mxCell>
        <mxCell id="BJ98u4_G1ES-Bh9A2rWm-1792" value="allAppleProduct.html" style="rounded=1;whiteSpace=wrap;html=1;shadow=0;labelBackgroundColor=none;strokeColor=none;strokeWidth=3;fillColor=#f08e81;fontFamily=Helvetica;fontSize=14;fontColor=#FFFFFF;align=center;spacing=5;fontStyle=0;arcSize=50;perimeterSpacing=2;" parent="1" vertex="1">
          <mxGeometry x="531.5" y="-290" width="148.5" height="60" as="geometry" />
        </mxCell>
        <mxCell id="BJ98u4_G1ES-Bh9A2rWm-1796" value="userPage.html" style="rounded=1;whiteSpace=wrap;html=1;shadow=0;labelBackgroundColor=none;strokeColor=none;strokeWidth=3;fillColor=#f08e81;fontFamily=Helvetica;fontSize=14;fontColor=#FFFFFF;align=center;spacing=5;fontStyle=0;arcSize=50;perimeterSpacing=2;" parent="1" vertex="1">
          <mxGeometry x="920.75" y="-290" width="150" height="60" as="geometry" />
        </mxCell>
        <mxCell id="BJ98u4_G1ES-Bh9A2rWm-1798" value="allBoSacProduct.html" style="rounded=1;whiteSpace=wrap;html=1;shadow=0;labelBackgroundColor=none;strokeColor=none;strokeWidth=3;fillColor=#f08e81;fontFamily=Helvetica;fontSize=14;fontColor=#FFFFFF;align=center;spacing=5;fontStyle=0;arcSize=50;perimeterSpacing=2;" parent="1" vertex="1">
          <mxGeometry x="531.5" y="20" width="150" height="60" as="geometry" />
        </mxCell>
        <mxCell id="BJ98u4_G1ES-Bh9A2rWm-1799" value="allAppleProduct.html" style="rounded=1;whiteSpace=wrap;html=1;shadow=0;labelBackgroundColor=none;strokeColor=none;strokeWidth=3;fillColor=#f08e81;fontFamily=Helvetica;fontSize=14;fontColor=#FFFFFF;align=center;spacing=5;fontStyle=0;arcSize=50;perimeterSpacing=2;" parent="1" vertex="1">
          <mxGeometry x="533" y="-80" width="148.5" height="60" as="geometry" />
        </mxCell>
        <mxCell id="BJ98u4_G1ES-Bh9A2rWm-1800" value="allBoSacProduct.html" style="rounded=1;whiteSpace=wrap;html=1;shadow=0;labelBackgroundColor=none;strokeColor=none;strokeWidth=3;fillColor=#f08e81;fontFamily=Helvetica;fontSize=14;fontColor=#FFFFFF;align=center;spacing=5;fontStyle=0;arcSize=50;perimeterSpacing=2;" parent="1" vertex="1">
          <mxGeometry x="532.25" y="210" width="150" height="60" as="geometry" />
        </mxCell>
        <mxCell id="BJ98u4_G1ES-Bh9A2rWm-1801" value="allAppleProduct.html" style="rounded=1;whiteSpace=wrap;html=1;shadow=0;labelBackgroundColor=none;strokeColor=none;strokeWidth=3;fillColor=#f08e81;fontFamily=Helvetica;fontSize=14;fontColor=#FFFFFF;align=center;spacing=5;fontStyle=0;arcSize=50;perimeterSpacing=2;" parent="1" vertex="1">
          <mxGeometry x="533" y="120" width="148.5" height="60" as="geometry" />
        </mxCell>
        <mxCell id="BJ98u4_G1ES-Bh9A2rWm-1783" value="detailProduct.html" style="rounded=1;whiteSpace=wrap;html=1;shadow=0;labelBackgroundColor=none;strokeColor=none;strokeWidth=3;fillColor=#f08e81;fontFamily=Helvetica;fontSize=14;fontColor=#FFFFFF;align=center;spacing=5;fontStyle=0;arcSize=50;perimeterSpacing=2;" parent="1" vertex="1">
          <mxGeometry x="921.5" y="20" width="148.5" height="60" as="geometry" />
        </mxCell>
      </root>
    </mxGraphModel>
  </diagram>
</mxfile>
